<svg xmlns="http://www.w3.org/2000/svg" viewBox="0 0 64 64">
  <defs>
    <linearGradient id="ribbon" x1="9" y1="10" x2="47" y2="56" gradientUnits="userSpaceOnUse">
      <stop stop-color="#f4be2f"/>
      <stop offset=".34" stop-color="#49b96e"/>
      <stop offset=".68" stop-color="#168eac"/>
      <stop offset="1" stop-color="#273e91"/>
    </linearGradient>
  </defs>
  <rect width="64" height="64" rx="14" fill="#123d73"/>
  <path d="M17 10h16c10 0 16 5 16 13 0 5-2 8-7 11 6 2 9 6 9 12 0 9-7 14-18 14H17V10Zm11 10v9h5c4 0 6-2 6-5s-2-4-6-4h-5Zm0 19v11h6c4 0 7-2 7-5s-3-6-7-6h-6Z" fill="url(#ribbon)" fill-rule="evenodd"/>
  <circle cx="49" cy="49" r="11" fill="#19b78a" stroke="#123d73" stroke-width="3"/>
  <path d="m44.5 49 3 3 6-6" fill="none" stroke="#fff" stroke-linecap="round" stroke-linejoin="round" stroke-width="2.7"/>
</svg>
